<?xml version="1.0" encoding="utf-8"?>
<!-- Generator: Adobe Illustrator 19.2.0, SVG Export Plug-In . SVG Version: 6.00 Build 0)  -->
<svg version="1.1" id="Layer_1" xmlns="http://www.w3.org/2000/svg" xmlns:xlink="http://www.w3.org/1999/xlink" x="0px" y="0px"
	 viewBox="0 0 301.2 162.1" style="enable-background:new 0 0 301.2 162.1;" xml:space="preserve">
<path d="M142.4,0H0.3v162.2h142.1v-38.8h156.3v-3.9H142.4V0z M134.6,119.5H28.1v3.9h106.5v31H8.1V7.8h126.5V119.5z M35.9,100.4
	l4.6-4.9l9.3,15.2h8.8l-13-20.2l11.8-15.4H49L35.9,92.5V64.9h-7.8v45.8h7.8V100.4z M64.7,100.2c0,7.1,2.7,11.1,9.5,11.1
	c2.6,0,4.7-0.6,6.5-1.6l-0.7-4.8c-1,0.4-2,0.6-3,0.6c-2.7,0-4.3-1.5-4.3-4.8V82.4h8.1v-5.9h-8.1v-8.1h-5.5l-2,7.9l-4.7,0.4v5
	l4.3,1.1V100.2z M97.4,111.3c4,0,7.3-1.3,9.8-4l0.4,3.4h6.9V75.1h-7.8v26.6c-1.3,1.8-3.7,3.4-6.8,3.4c-4,0-6-2.5-6-7.1V75.1h-7.8
	v22.8C86.1,106.1,90.1,111.3,97.4,111.3z M165.3,60.1l1.7-1.8l3.5,5.6h3.3l-4.8-7.5l4.4-5.7h-3.1l-4.9,6.4V46.9h-2.9v17h2.9V60.1z
	 M180.6,56.3c-4.4,0-5.8,1.9-5.8,4.3c0,2.2,1.4,3.6,3.7,3.6c1.3,0,2.5-0.4,3.4-1.3c0.4,0.7,1.1,1.2,2.4,1.2c0.5,0,1-0.1,1.4-0.2
	v-1.7h-0.3c-0.6,0-0.9-0.4-0.9-1V55c0-2.5-1.2-4.5-4.4-4.5c-2.3,0-3.8,1.2-4.7,3.1l1.8,1c0.6-1.2,1.5-1.8,2.5-1.8
	c1.3,0,1.9,0.7,1.9,2.3v1.3H180.6z M181.5,61.2c-0.6,0.7-1.2,1-2.2,1c-1,0-1.7-0.5-1.7-1.8c0-1.3,0.7-2.1,3-2.1h0.9V61.2z
	 M191.5,64.2c1.5,0,2.7-0.5,3.6-1.5l0.1,1.2h2.6V50.7H195v9.9c-0.5,0.7-1.4,1.2-2.5,1.2c-1.5,0-2.2-0.9-2.2-2.7v-8.5h-2.9v8.5
	C187.3,62.3,188.8,64.2,191.5,64.2z M203.8,54.2c0.5-0.7,1.4-1.3,2.5-1.3c1.5,0,2.2,0.9,2.2,2.7v8.4h2.9v-8.4c0-3.1-1.5-5-4.2-5
	c-1.5,0-2.7,0.5-3.6,1.5l-0.1-1.3h-2.6v13.2h2.9V54.2z M219,64.2c3.5,0,5.3-2.1,5.3-4.8v-4.1c0-2.7-1.8-4.8-5.3-4.8
	c-3.5,0-5.3,2.1-5.3,4.8v4.1C213.7,62.1,215.5,64.2,219,64.2z M216.7,55.4c0-1.7,0.7-2.7,2.4-2.7c1.7,0,2.4,1,2.4,2.7v3.9
	c0,1.7-0.7,2.7-2.4,2.7c-1.6,0-2.4-1-2.4-2.7V55.4z M162.8,83.5c0,2.7,1,4.1,3.5,4.1c1,0,1.7-0.2,2.4-0.6l-0.3-1.8
	c-0.4,0.1-0.7,0.2-1.1,0.2c-1,0-1.6-0.5-1.6-1.8v-6.7h3v-2.2h-3v-3h-2l-0.8,2.9l-1.7,0.1v1.8l1.6,0.4V83.5z M180.5,84.2l-2.1-0.8
	c-0.5,1.4-1.3,1.9-2.5,1.9c-1.6,0-2.5-0.9-2.5-2.7v-1.5h7.1v-2.3c0-2.7-1.7-4.9-4.9-4.9c-3.3,0-5.1,2.1-5.1,4.8v4.1
	c0,2.8,1.8,4.8,5.1,4.8C178.2,87.6,179.8,86.5,180.5,84.2z M173.4,78.5c0-1.6,0.7-2.5,2.3-2.5c1.4,0,2.3,0.9,2.3,2.4v0.9h-4.5V78.5z
	 M190.1,83.6c-0.5,1.3-1.2,1.8-2.3,1.8c-1.5,0-2.4-0.9-2.4-2.7v-3.8c0-1.8,0.9-2.6,2.4-2.6c1,0,1.9,0.5,2.3,1.7l2-0.8
	c-0.8-2-2.4-3.2-4.6-3.2c-3.3,0-5,2.1-5,4.8v4.1c0,2.6,1.7,4.8,5,4.8c2.4,0,4-1.2,4.7-3.2L190.1,83.6z M197.1,70.4h-2.9v17h2.9v-9.8
	c0.5-0.7,1.4-1.2,2.5-1.2c1.5,0,2.2,0.9,2.2,2.7v8.4h2.9v-8.4c0-3.1-1.5-5-4.2-5c-1.4,0-2.6,0.4-3.5,1.3V70.4z M218.1,78.9
	c0-3.1-1.5-5-4.2-5c-1.5,0-2.7,0.5-3.6,1.5l-0.1-1.3h-2.6v13.2h2.9v-9.8c0.5-0.7,1.4-1.3,2.5-1.3c1.5,0,2.2,0.9,2.2,2.7v8.4h2.9
	V78.9z M220.4,78.7v4.1c0,2.7,1.8,4.8,5.3,4.8c3.5,0,5.3-2.1,5.3-4.8v-4.1c0-2.7-1.8-4.8-5.3-4.8C222.2,73.9,220.4,76.1,220.4,78.7z
	 M223.3,78.8c0-1.7,0.7-2.7,2.4-2.7c1.7,0,2.4,1,2.4,2.7v3.9c0,1.7-0.7,2.7-2.4,2.7c-1.6,0-2.4-1-2.4-2.7V78.8z M236.7,70.4h-2.9v17
	h2.9V70.4z M244.9,87.6c3.5,0,5.3-2.1,5.3-4.8v-4.1c0-2.7-1.8-4.8-5.3-4.8c-3.5,0-5.3,2.1-5.3,4.8v4.1
	C239.6,85.5,241.4,87.6,244.9,87.6z M242.5,78.8c0-1.7,0.7-2.7,2.4-2.7c1.7,0,2.4,1,2.4,2.7v3.9c0,1.7-0.7,2.7-2.4,2.7
	c-1.6,0-2.4-1-2.4-2.7V78.8z M252.2,83.2c0,0.9,0.5,1.6,1.3,2.1c-0.6,0.5-1,1.3-1,2.1c0,1.7,1.4,3,5,3c3.6,0,5.7-1.4,5.7-3.9
	c0-1.9-1.2-3.1-4.3-3.1h-3c-1,0-1.4-0.3-1.4-0.8c0-0.3,0.3-0.6,0.8-0.9c0.6,0.2,1.4,0.3,2.2,0.3c3.4,0,4.9-1.4,4.9-4
	c0-0.8-0.2-1.5-0.4-2.1c0.7-0.6,1.2-1.4,1.3-2.4l-1.3-0.6c-0.3,0.6-0.8,1.2-1.5,1.6c-0.8-0.4-1.7-0.5-3-0.5c-3.3,0-4.8,1.3-4.8,4.1
	c0,1.3,0.4,2.3,1.2,3C252.8,81.6,252.2,82.4,252.2,83.2z M255.6,85.7h3.2c1.6,0,2,0.3,2,1.2c0,0.8-0.4,1.6-3.1,1.6
	c-1.8,0-2.7-0.4-2.7-1.4C254.9,86.5,255.1,86,255.6,85.7z M257.5,76c1.6,0,2.1,0.5,2.1,2.1c0,1.6-0.5,2-2.1,2c-1.6,0-2.1-0.5-2.1-2
	C255.5,76.5,256,76,257.5,76z M268.4,74.7h-2.9v12.7h2.9V74.7z M268.2,70.4h-2.6v2.5h2.6V70.4z M274.6,70.4h-2.5v2.5h2.5V70.4z
	 M274.8,85V74.7h-2.9v10.4c0,2-0.7,2.9-2.3,3l0.2,2.2C273.1,90.1,274.8,88.4,274.8,85z M282.5,87.6c3.5,0,5.3-2.1,5.3-4.8v-4.1
	c0-2.7-1.8-4.8-5.3-4.8c-3.5,0-5.3,2.1-5.3,4.8v4.1C277.2,85.5,279,87.6,282.5,87.6z M280.1,78.8c0-1.7,0.7-2.7,2.4-2.7
	c1.7,0,2.4,1,2.4,2.7v3.9c0,1.7-0.7,2.7-2.4,2.7c-1.6,0-2.4-1-2.4-2.7V78.8z M294.3,85.5c-1,0-2.2-0.5-2.8-1.8l-1.8,1
	c0.9,2,2.5,2.9,4.7,2.9c2.7,0,4.5-1.7,4.5-4c0-4.4-6.3-3.6-6.3-6.1c0-0.9,0.6-1.5,1.9-1.5c1.1,0,2,0.4,2.5,1.6l1.8-0.8
	c-0.8-1.9-2.3-2.9-4.4-2.9c-2.9,0-4.5,1.7-4.5,3.8c0,4.4,6.3,3.5,6.3,6.1C296.2,84.9,295.6,85.5,294.3,85.5z M162,97.6v8.5
	c0,3.1,1.5,5,4.2,5c1.5,0,2.7-0.5,3.6-1.5l0.1,1.2h2.6V97.6h-2.9v9.9c-0.5,0.7-1.4,1.2-2.5,1.2c-1.5,0-2.2-0.9-2.2-2.7v-8.5H162z
	 M186.1,110.8v-8.5c0-3.1-1.5-5-4.2-5c-1.5,0-2.7,0.5-3.6,1.5l-0.1-1.3h-2.6v13.2h2.9V101c0.5-0.7,1.4-1.3,2.5-1.3
	c1.5,0,2.2,0.9,2.2,2.7v8.4H186.1z M189.3,93.8v2.5h2.6v-2.5H189.3z M189.1,110.8h2.9V98.1h-2.9V110.8z M200.2,108.2l-2.9-10.6H194
	l4.6,13.2h3.2l4.6-13.2h-3.3L200.2,108.2z M217.6,104.5v-2.3c0-2.7-1.7-4.9-4.9-4.9c-3.3,0-5.1,2.1-5.1,4.8v4.1
	c0,2.8,1.8,4.8,5.1,4.8c2.6,0,4.2-1.1,4.9-3.4l-2.1-0.8c-0.5,1.4-1.3,1.9-2.5,1.9c-1.6,0-2.5-0.9-2.5-2.7v-1.5H217.6z M210.5,102
	c0-1.6,0.7-2.5,2.3-2.5c1.4,0,2.3,0.9,2.3,2.4v0.9h-4.5V102z M222.7,99.8l-0.2-2.2H220v13.2h2.9v-7.4c0.2-2.1,1.2-3.4,2.9-3.4
	c0.5,0,0.9,0.1,1.3,0.3l0.3-2.7c-0.4-0.2-1-0.3-1.5-0.3C224.5,97.4,223.4,98,222.7,99.8z M228.9,101.1c0,4.4,6.3,3.5,6.3,6.1
	c0,1.1-0.6,1.7-1.8,1.7c-1,0-2.2-0.5-2.8-1.8l-1.8,1c0.9,2,2.5,2.9,4.7,2.9c2.7,0,4.5-1.7,4.5-4c0-4.4-6.3-3.6-6.3-6.1
	c0-0.9,0.6-1.5,1.9-1.5c1.1,0,2,0.4,2.5,1.6l1.8-0.8c-0.8-1.9-2.3-2.9-4.4-2.9C230.5,97.3,228.9,99,228.9,101.1z M240.5,93.8v2.5
	h2.6v-2.5H240.5z M240.4,110.8h2.9V98.1h-2.9V110.8z M252.9,100.3v-2.2h-3v-3h-2l-0.8,2.9l-1.7,0.1v1.8l1.6,0.4v6.5
	c0,2.7,1,4.1,3.5,4.1c1,0,1.7-0.2,2.4-0.6l-0.3-1.8c-0.4,0.1-0.7,0.2-1.1,0.2c-1,0-1.6-0.5-1.6-1.8v-6.7H252.9z M254.7,102.1v4.1
	c0,2.8,1.8,4.8,5.1,4.8c2.6,0,4.2-1.1,4.9-3.4l-2.1-0.8c-0.5,1.4-1.3,1.9-2.6,1.9c-1.6,0-2.5-0.9-2.5-2.7v-1.5h7.1v-2.3
	c0-2.7-1.7-4.9-4.9-4.9C256.5,97.3,254.7,99.5,254.7,102.1z M262.2,101.9v0.9h-4.5V102c0-1.6,0.7-2.5,2.3-2.5
	C261.3,99.5,262.2,100.3,262.2,101.9z M266.1,98.1v1.8l1.6,0.4v6.5c0,2.7,1,4.1,3.5,4.1c1,0,1.7-0.2,2.4-0.6l-0.3-1.8
	c-0.4,0.1-0.7,0.2-1.1,0.2c-1,0-1.6-0.5-1.6-1.8v-6.7h3v-2.2h-3v-3h-2l-0.8,2.9L266.1,98.1z M281,103.1c-4.4,0-5.8,1.9-5.8,4.3
	c0,2.2,1.4,3.6,3.7,3.6c1.3,0,2.5-0.4,3.4-1.3c0.4,0.7,1.1,1.2,2.4,1.2c0.5,0,1-0.1,1.4-0.2v-1.7h-0.3c-0.6,0-0.9-0.4-0.9-1v-6.2
	c0-2.5-1.2-4.5-4.4-4.5c-2.3,0-3.8,1.2-4.7,3.1l1.8,1c0.6-1.2,1.5-1.8,2.6-1.8c1.3,0,1.9,0.7,1.9,2.3v1.3H281z M281.9,108
	c-0.6,0.7-1.2,1-2.2,1c-1,0-1.7-0.5-1.7-1.8c0-1.3,0.7-2.1,3-2.1h0.9V108z M293.8,107.3c0,1.1-0.6,1.7-1.8,1.7c-1,0-2.2-0.5-2.8-1.8
	l-1.8,1c0.9,2,2.5,2.9,4.7,2.9c2.7,0,4.5-1.7,4.5-4c0-4.4-6.3-3.6-6.3-6.1c0-0.9,0.6-1.5,1.9-1.5c1.1,0,2,0.4,2.5,1.6l1.8-0.8
	c-0.8-1.9-2.3-2.9-4.4-2.9c-2.9,0-4.5,1.7-4.5,3.8C287.5,105.5,293.8,104.6,293.8,107.3z M18.6,146.5h3v-13.7h-2.4
	c-0.2,2.1-0.6,2.5-2.2,2.5h-1.1v2h2.7V146.5z M27.4,141.4c0.9,0,1.7-0.2,2.3-0.7v1.6c0,1.4-0.6,2.1-2,2.1c-1.1,0-1.7-0.4-2.2-1.6
	l-1.8,1.1c0.6,1.9,2.1,2.9,4.2,2.9c2.9,0,4.6-1.8,4.6-4.6v-5c0-2.4-1.5-4.3-4.4-4.3c-2.9,0-4.6,1.7-4.6,4.6
	C23.5,140.1,25.1,141.4,27.4,141.4z M28.1,135.2c1.1,0,1.6,0.5,1.6,1.7v1.1c0,0.8-1,1.1-1.7,1.1c-1,0-1.6-0.4-1.6-1.9
	C26.4,135.8,26.9,135.2,28.1,135.2z M38.3,135.2c1.1,0,1.6,0.5,1.6,1.5c0,2.7-5.7,4.3-5.8,8.7l0,1.2h8.7v-2.4h-5.5
	c0.7-2.8,5.5-3.1,5.5-7.7c0-2-1.2-3.7-4.2-3.7c-2.5,0-4,1.6-4.6,3.7l2.2,0.8C36.5,135.9,37.3,135.2,38.3,135.2z M48.4,135.2
	c1.1,0,1.6,0.5,1.6,1.5c0,2.7-5.7,4.3-5.8,8.7l0,1.2h8.7v-2.4h-5.5c0.7-2.8,5.5-3.1,5.5-7.7c0-2-1.2-3.7-4.2-3.7
	c-2.5,0-4,1.6-4.6,3.7l2.2,0.8C46.6,135.9,47.4,135.2,48.4,135.2z"/>
</svg>
